<mxfile host="app.diagrams.net" modified="2024-05-15T03:33:51.461Z" agent="Mozilla/5.0 (Windows NT 10.0; Win64; x64; rv:127.0) Gecko/20100101 Firefox/127.0" version="24.4.0" etag="FSVYQTAkX2P4uNTbZxdL" type="github">
  <diagram name="Page-1" id="Ug1s9UyiiCup6maI9893">
    <mxGraphModel>
      <root>
        <mxCell id="0" />
        <mxCell id="1" parent="0" />
      </root>
    </mxGraphModel>
  </diagram>
</mxfile>
